PathFileType  4	(X/Y/Z) C:\Users\wagnerel85475\Documents\Thesis\opencap-core\Data\3375ffbc-daeb-4a43-b4f7-ac9899cd4c71\MarkerData\PreAugmentation
DataRate	CameraRate	NumFrames	NumMarkers	Units	OrigDataRate	OrigDataStartFrame	OrigNumFrames
60.0	60.0	18	20	m	60.0	98	780
Frame#	Time	Neck			RShoulder			RElbow			RWrist			LShoulder			LElbow			LWrist			midHip			RHip			RKnee			RAnkle			LHip			LKnee			LAnkle			LBigToe			LSmallToe			LHeel			RBigToe			RSmallToe			RHeel			
		X1	Y1	Z1	X2	Y2	Z2	X3	Y3	Z3	X4	Y4	Z4	X5	Y5	Z5	X6	Y6	Z6	X7	Y7	Z7	X8	Y8	Z8	X9	Y9	Z9	X10	Y10	Z10	X11	Y11	Z11	X12	Y12	Z12	X13	Y13	Z13	X14	Y14	Z14	X15	Y15	Z15	X16	Y16	Z16	X17	Y17	Z17	X18	Y18	Z18	X19	Y19	Z19	X20	Y20	Z20	

98	1.6166667	-0.7772500	1.3723200	-0.0279700	-0.7789000	1.3615800	0.1471800	-0.8160500	1.0459100	0.2125100	-0.7014700	0.7628900	0.2490800	-0.7582500	1.4110200	-0.2155900	-0.6481100	1.6056400	-0.4325300	-0.6301000	1.8888800	-0.3749900	-0.6905000	0.8034200	-0.0289000	-0.7193000	0.8000700	0.0897400	-0.7578800	0.3137400	0.0911800	-0.8389700	-0.1831800	0.1412800	-0.7280400	0.8004000	-0.1525400	-0.7967300	0.3089700	-0.1507300	-0.8621100	-0.1901500	-0.1906000	-0.6186300	-0.2432100	-0.2562400	-0.6954800	-0.2513600	-0.3015900	-0.8949200	-0.2495800	-0.1786000	-0.6220600	-0.2377200	0.1984500	-0.7113700	-0.2377200	0.2456500	-0.9282000	-0.2513900	0.1110100
99	1.6333333	-0.7750600	1.3721600	-0.0267000	-0.7820500	1.3615200	0.1484400	-0.8170000	1.0458700	0.2129100	-0.7014900	0.7628400	0.2490700	-0.7576200	1.4040500	-0.2129700	-0.6461000	1.6012500	-0.4390300	-0.6284700	1.8752600	-0.3743000	-0.6927400	0.8032500	-0.0280700	-0.7193100	0.8000800	0.0897500	-0.7578900	0.3135800	0.0911700	-0.8390100	-0.1838700	0.1412200	-0.7280200	0.8004200	-0.1525200	-0.7968900	0.3089200	-0.1508000	-0.8621200	-0.1901500	-0.1906000	-0.6186300	-0.2432000	-0.2562400	-0.6969100	-0.2517500	-0.3020300	-0.8949300	-0.2495700	-0.1786100	-0.6204800	-0.2373000	0.1987800	-0.7113000	-0.2378000	0.2456600	-0.9281800	-0.2513800	0.1110100
100	1.6500000	-0.7738400	1.3719300	-0.0236300	-0.7832900	1.3614100	0.1489300	-0.8211200	1.0456400	0.2145800	-0.7015200	0.7628100	0.2490600	-0.7586900	1.3966900	-0.2093400	-0.6465700	1.5924100	-0.4429100	-0.6244700	1.8604000	-0.3728600	-0.6908900	0.8034100	-0.0287200	-0.7192900	0.8000900	0.0897600	-0.7579000	0.3134700	0.0911500	-0.8390300	-0.1843400	0.1411900	-0.7279500	0.8004300	-0.1525100	-0.7956800	0.3090800	-0.1505200	-0.8621200	-0.1901800	-0.1906000	-0.6186300	-0.2431900	-0.2562300	-0.6954100	-0.2513300	-0.3015600	-0.8949200	-0.2496200	-0.1786200	-0.6153600	-0.2358900	0.1998600	-0.7112700	-0.2377900	0.2456700	-0.9281600	-0.2513800	0.1110200
101	1.6666667	-0.7786600	1.3718500	-0.0209100	-0.7831900	1.3613300	0.1489000	-0.8271500	1.0453800	0.2170100	-0.7015900	0.7627800	0.2490500	-0.7638400	1.3916200	-0.2069200	-0.6451300	1.5770500	-0.4451300	-0.6192600	1.8462600	-0.3710700	-0.6875600	0.8037300	-0.0299100	-0.7192700	0.8000900	0.0897700	-0.7579100	0.3134800	0.0911500	-0.8390300	-0.1843700	0.1411800	-0.7278700	0.8004400	-0.1524900	-0.7926800	0.3095900	-0.1496800	-0.8621300	-0.1901800	-0.1906100	-0.6185900	-0.2432000	-0.2562200	-0.6907400	-0.2500700	-0.3001000	-0.8949900	-0.2495600	-0.1786200	-0.6085800	-0.2339900	0.2012900	-0.7112600	-0.2377100	0.2456600	-0.9281300	-0.2514700	0.1110200
102	1.6833333	-0.7856700	1.3719000	-0.0199500	-0.7829300	1.3611400	0.1488400	-0.8313800	1.0452400	0.2187200	-0.7017100	0.7627800	0.2490600	-0.7715900	1.3886200	-0.2062200	-0.6411400	1.5574100	-0.4471200	-0.6143900	1.8329000	-0.3693900	-0.6860400	0.8038600	-0.0304500	-0.7192500	0.8000600	0.0897700	-0.7579600	0.3134500	0.0911700	-0.8390700	-0.1847800	0.1411400	-0.7278400	0.8004200	-0.1524900	-0.7895900	0.3100700	-0.1485800	-0.8621400	-0.1901800	-0.1906100	-0.6185500	-0.2432000	-0.2562100	-0.6844900	-0.2483700	-0.2981600	-0.8950200	-0.2495900	-0.1786400	-0.6040000	-0.2327200	0.2022600	-0.7112700	-0.2376600	0.2456600	-0.9281000	-0.2515700	0.1110200
103	1.7000000	-0.7888600	1.3718400	-0.0200900	-0.7828400	1.3610900	0.1488900	-0.8324400	1.0452100	0.2191500	-0.7018100	0.7628100	0.2490600	-0.7759400	1.3865500	-0.2064300	-0.6387900	1.5391100	-0.4499100	-0.6092500	1.8168800	-0.3675500	-0.6861100	0.8038600	-0.0304300	-0.7192300	0.8000500	0.0897700	-0.7580200	0.3133700	0.0912000	-0.8391900	-0.1858700	0.1410600	-0.7278400	0.8004600	-0.1525100	-0.7871500	0.3102200	-0.1476100	-0.8621300	-0.1902000	-0.1906100	-0.6185200	-0.2431700	-0.2562000	-0.6802700	-0.2472000	-0.2968600	-0.8950400	-0.2495700	-0.1786400	-0.6029300	-0.2324200	0.2024900	-0.7111500	-0.2380600	0.2457000	-0.9281100	-0.2513400	0.1109800
104	1.7166667	-0.7873200	1.3717800	-0.0199900	-0.7829900	1.3610600	0.1489500	-0.8320500	1.0452500	0.2190200	-0.7016300	0.7627900	0.2490000	-0.7715900	1.3860200	-0.2065900	-0.6381100	1.5241900	-0.4535200	-0.6033300	1.7951000	-0.3654200	-0.6864100	0.8037700	-0.0303400	-0.7192100	0.8000400	0.0897700	-0.7580000	0.3133300	0.0911900	-0.8393000	-0.1865400	0.1410100	-0.7278400	0.8004300	-0.1525300	-0.7843900	0.3111800	-0.1475500	-0.8621300	-0.1901900	-0.1906100	-0.6184700	-0.2431600	-0.2562200	-0.6793000	-0.2469300	-0.2965700	-0.8950600	-0.2495400	-0.1786400	-0.6034300	-0.2325700	0.2023900	-0.7109200	-0.2389700	0.2458000	-0.9282800	-0.2503400	0.1108500
105	1.7333333	-0.7830700	1.3717200	-0.0191600	-0.7835000	1.3610000	0.1489100	-0.8317100	1.0452500	0.2189100	-0.7010200	0.7628500	0.2488100	-0.7597300	1.3865100	-0.2051900	-0.6358400	1.5089900	-0.4567000	-0.5973600	1.7698300	-0.3633100	-0.6864800	0.8036200	-0.0303200	-0.7192000	0.8000300	0.0897600	-0.7579000	0.3134700	0.0911500	-0.8392400	-0.1858500	0.1410600	-0.7278100	0.8002600	-0.1525500	-0.7815700	0.3128900	-0.1497100	-0.8621400	-0.1901300	-0.1906000	-0.6183700	-0.2431600	-0.2562400	-0.6796600	-0.2470300	-0.2967000	-0.8951000	-0.2496000	-0.1786300	-0.6038500	-0.2327000	0.2022900	-0.7108100	-0.2395200	0.2458400	-0.9286000	-0.2489100	0.1106700
106	1.7500000	-0.7792100	1.3718300	-0.0182100	-0.7840700	1.3609900	0.1488200	-0.8316600	1.0452400	0.2189100	-0.7002900	0.7621600	0.2485700	-0.7481500	1.3873500	-0.2025000	-0.6326300	1.4890300	-0.4581800	-0.5911600	1.7435900	-0.3612200	-0.6864300	0.8034700	-0.0303400	-0.7192000	0.7999500	0.0897500	-0.7577600	0.3135600	0.0911200	-0.8391400	-0.1845900	0.1411500	-0.7277900	0.8001500	-0.1525500	-0.7789900	0.3145200	-0.1531500	-0.8621200	-0.1901700	-0.1906100	-0.6183700	-0.2432100	-0.2562200	-0.6796000	-0.2470300	-0.2966900	-0.8951300	-0.2497600	-0.1786300	-0.6039400	-0.2327300	0.2022600	-0.7109500	-0.2389800	0.2457600	-0.9289200	-0.2478500	0.1105500
107	1.7666667	-0.7779000	1.3718200	-0.0178300	-0.7829200	1.3610300	0.1491000	-0.8316900	1.0452000	0.2189400	-0.7000100	0.7606800	0.2484800	-0.7438300	1.3869800	-0.2011300	-0.6306400	1.4643800	-0.4581900	-0.5863900	1.7169800	-0.3596200	-0.6864600	0.8038400	-0.0303600	-0.7192200	0.7999400	0.0897400	-0.7576600	0.3135900	0.0911000	-0.8391000	-0.1840100	0.1411900	-0.7278800	0.8005800	-0.1525600	-0.7748600	0.3160600	-0.1546400	-0.8621200	-0.1901600	-0.1906100	-0.6187200	-0.2433400	-0.2561000	-0.6791600	-0.2469100	-0.2965600	-0.8950100	-0.2493800	-0.1786800	-0.6038700	-0.2327100	0.2022700	-0.7111700	-0.2380600	0.2456600	-0.9290100	-0.2476100	0.1105200
108	1.7833333	-0.7782800	1.3717400	-0.0178700	-0.7780300	1.3609300	0.1501900	-0.8316900	1.0451000	0.2189600	-0.7001800	0.7588000	0.2485500	-0.7449000	1.3855500	-0.2022700	-0.6296300	1.4388400	-0.4576900	-0.5871400	1.6887500	-0.3597000	-0.6867100	0.8053000	-0.0303500	-0.7193100	0.8004700	0.0897400	-0.7576200	0.3136300	0.0910900	-0.8391200	-0.1844200	0.1411500	-0.7282400	0.8020800	-0.1525600	-0.7692200	0.3180500	-0.1534500	-0.8621700	-0.1901100	-0.1906100	-0.6191800	-0.2434400	-0.2559500	-0.6802300	-0.2471500	-0.2968900	-0.8945300	-0.2479300	-0.1788800	-0.6037600	-0.2326500	0.2022900	-0.7112400	-0.2376300	0.2456200	-0.9289700	-0.2476900	0.1105300
109	1.8000000	-0.7786200	1.3717200	-0.0179600	-0.7709600	1.3607600	0.1517700	-0.8316900	1.0451000	0.2189700	-0.7004600	0.7575600	0.2486600	-0.7440100	1.3833600	-0.2041400	-0.6287100	1.4128200	-0.4572600	-0.5901300	1.6586600	-0.3604700	-0.6871300	0.8074500	-0.0303100	-0.7195000	0.8015900	0.0897600	-0.7576100	0.3136700	0.0910700	-0.8392000	-0.1856000	0.1410600	-0.7286900	0.8038300	-0.1525500	-0.7648200	0.3200100	-0.1518900	-0.8621800	-0.1901800	-0.1906300	-0.6180900	-0.2432000	-0.2563000	-0.6847100	-0.2484000	-0.2983100	-0.8939100	-0.2458500	-0.1791400	-0.6036400	-0.2325900	0.2023200	-0.7111900	-0.2376200	0.2456400	-0.9289300	-0.2477200	0.1105500
110	1.8166667	-0.7783400	1.3718400	-0.0179000	-0.7660600	1.3607200	0.1528800	-0.8316900	1.0452000	0.2189800	-0.7005800	0.7572800	0.2487000	-0.7401900	1.3808600	-0.2041500	-0.6280100	1.3859400	-0.4570600	-0.5845000	1.6268900	-0.3592500	-0.6874300	0.8089400	-0.0302700	-0.7196100	0.8022700	0.0897700	-0.7576000	0.3136500	0.0910600	-0.8393000	-0.1867200	0.1409800	-0.7288300	0.8043000	-0.1525500	-0.7628500	0.3206000	-0.1513500	-0.8622100	-0.1901700	-0.1906300	-0.6138100	-0.2418500	-0.2577200	-0.6910400	-0.2500800	-0.3002900	-0.8935600	-0.2443400	-0.1793100	-0.6035600	-0.2325600	0.2023400	-0.7111300	-0.2377000	0.2456500	-0.9288600	-0.2477600	0.1105600
111	1.8333333	-0.7781400	1.3718100	-0.0178700	-0.7648700	1.3607000	0.1531800	-0.8316900	1.0452900	0.2189800	-0.7005800	0.7573700	0.2486900	-0.7389000	1.3782700	-0.2024700	-0.6282500	1.3592500	-0.4573300	-0.5662500	1.5956400	-0.3558000	-0.6873700	0.8087600	-0.0302800	-0.7195100	0.8016100	0.0897500	-0.7576000	0.3136500	0.0910600	-0.8393300	-0.1871300	0.1409600	-0.7286400	0.8035000	-0.1525700	-0.7625300	0.3200000	-0.1514400	-0.8621900	-0.1902200	-0.1906300	-0.6076600	-0.2400400	-0.2597300	-0.6942500	-0.2509200	-0.3013100	-0.8933400	-0.2443000	-0.1793800	-0.6035300	-0.2325700	0.2023400	-0.7111200	-0.2377400	0.2456500	-0.9288100	-0.2478600	0.1105700
112	1.8500000	-0.7797400	1.3718300	-0.0182800	-0.7653700	1.3607000	0.1531000	-0.8317400	1.0449900	0.2190000	-0.7005800	0.7574100	0.2486900	-0.7410100	1.3752500	-0.2019200	-0.6297700	1.3327700	-0.4579700	-0.5453500	1.5641600	-0.3526400	-0.6871000	0.8075400	-0.0303100	-0.7193200	0.8004100	0.0897200	-0.7575800	0.3136800	0.0910700	-0.8393200	-0.1870500	0.1409600	-0.7283700	0.8024600	-0.1525800	-0.7642000	0.3191000	-0.1520600	-0.8621700	-0.1902200	-0.1906300	-0.6034500	-0.2393100	-0.2610600	-0.6924700	-0.2505200	-0.3007900	-0.8930400	-0.2453300	-0.1794400	-0.6035400	-0.2325600	0.2023400	-0.7111300	-0.2377400	0.2456400	-0.9287700	-0.2479500	0.1105800
113	1.8666667	-0.7835300	1.3715800	-0.0192300	-0.7657900	1.3607200	0.1530300	-0.8319600	1.0437200	0.2190600	-0.7005900	0.7573900	0.2486900	-0.7425000	1.3728000	-0.2035000	-0.6328000	1.3049100	-0.4581500	-0.5338800	1.5304500	-0.3514100	-0.6869000	0.8067900	-0.0303200	-0.7192100	0.7997700	0.0897100	-0.7575500	0.3137200	0.0910800	-0.8393100	-0.1870600	0.1409600	-0.7281400	0.8017400	-0.1525800	-0.7688300	0.3181600	-0.1536000	-0.8621400	-0.1902400	-0.1906300	-0.6026400	-0.2398200	-0.2612700	-0.6890100	-0.2495400	-0.2997300	-0.8927500	-0.2463200	-0.1795200	-0.6035500	-0.2324400	0.2023200	-0.7111600	-0.2377000	0.2456400	-0.9288300	-0.2476000	0.1105400
114	1.8833333	-0.7861100	1.3703000	-0.0197500	-0.7658700	1.3606500	0.1530400	-0.8322900	1.0419400	0.2191500	-0.7006100	0.7573600	0.2487000	-0.7409600	1.3714800	-0.2041500	-0.6399400	1.2753200	-0.4578700	-0.5310900	1.4914500	-0.3509000	-0.6869600	0.8074900	-0.0302800	-0.7192500	0.8001400	0.0897500	-0.7575000	0.3137500	0.0910800	-0.8393100	-0.1871700	0.1409400	-0.7281200	0.8022300	-0.1525600	-0.7736700	0.3173300	-0.1552600	-0.8621500	-0.1901800	-0.1906300	-0.6031900	-0.2404300	-0.2610500	-0.6858500	-0.2487200	-0.2987700	-0.8924200	-0.2472100	-0.1796100	-0.6035700	-0.2322900	0.2022900	-0.7111200	-0.2376800	0.2456400	-0.9291000	-0.2465200	0.1104100
115	1.9000000	-0.7845100	1.3684300	-0.0190500	-0.7657900	1.3606800	0.1530800	-0.8324800	1.0410300	0.2191800	-0.7006700	0.7573700	0.2487100	-0.7372300	1.3726700	-0.2016900	-0.6524800	1.2459000	-0.4585900	-0.5267600	1.4487700	-0.3488500	-0.6870800	0.8086500	-0.0302300	-0.7194600	0.8016900	0.0898200	-0.7574900	0.3138600	0.0910600	-0.8392500	-0.1868000	0.1409500	-0.7283400	0.8039200	-0.1525200	-0.7747600	0.3175400	-0.1549000	-0.8620900	-0.1903000	-0.1906300	-0.6033800	-0.2404100	-0.2609700	-0.6823800	-0.2478100	-0.2977100	-0.8920600	-0.2480800	-0.1797300	-0.6036100	-0.2326200	0.2023200	-0.7110600	-0.2376900	0.2456500	-0.9294900	-0.2453600	0.1102800
